# xmcd CD Database Entry
#
# Track frame offsets:
# 150
# 11575
# 33645
# 44775
# 60600
# 76620
# 89962
# 110177
# 125962
# 138197
# 158535
# 178637
# 198380
# 212825
# 235350
# 251502
# 269925
# 286550
#
# Disc length: 3948 seconds
#
# Revision: 3
# Processed by: cddbd v1.4b41PL2 Copyright (c) Steve Scherf et al.
# Submitted via: tcd 2.0b
#
DISCID=120f6a12
DTITLE=Petr Spaleny - Nejvetsi Hity 2
DYEAR=1900
DGENRE=
TTITLE0=Dama Pri Tele
TTITLE1=Dlouho Dlouho Spim
TTITLE2=Usta Divky Dasi
TTITLE3=Zly Znameni
TTITLE4=Tano Nashledanou
TTITLE5=Pane, Vy Jste Vdova
TTITLE6=Dite Stesteny
TTITLE7=Panska Jizda
TTITLE8=Necitim Se Sam
TTITLE9=Muz Dal Jmena Vsem Zviratum
TTITLE10=Ja Ho Jen Od Videni Znam
TTITLE11=Dalka
TTITLE12=Proc Jsem Tady
TTITLE13=Lod Blaznu
TTITLE14=Kde Jsou Honorare
TTITLE15=Kam Jit Svou Tmou
TTITLE16=Klonovana Zena
TTITLE17=Blanik
EXTD=
EXTT0=
EXTT1=
EXTT2=
EXTT3=
EXTT4=
EXTT5=
EXTT6=
EXTT7=
EXTT8=
EXTT9=
EXTT10=
EXTT11=
EXTT12=
EXTT13=
EXTT14=
EXTT15=
EXTT16=
EXTT17=
PLAYORDER=
